<svg width="16" height="17" viewBox="0 0 16 17" fill="none" xmlns="http://www.w3.org/2000/svg">
<path d="M0.546495 8.00618C0.216863 7.87607 0 7.58113 0 7.26017C0 6.74838 0.373004 6.3667 0.876126 6.3667C1.14504 6.3667 1.48334 6.51417 1.70021 6.59224L7.73767 8.96038L13.7665 6.59224C13.9833 6.51417 14.3303 6.3667 14.5905 6.3667C15.0937 6.3667 15.4667 6.74838 15.4667 7.26017C15.4667 7.58113 15.2498 7.87607 14.9202 8.00618L9.00415 10.3223C8.60512 10.4784 8.11935 10.6693 7.73767 10.6693C7.34732 10.6693 6.87022 10.4784 6.47119 10.3223L0.546495 8.00618Z" fill="black"/>
</svg>
