<svg width="20" height="16" viewBox="0 0 20 16" fill="none" xmlns="http://www.w3.org/2000/svg">
<path d="M2.557 16C0.855049 16 0 15.1274 0 13.3991V4.61458C0 2.88621 0.855049 2.02202 2.557 2.02202H4.82899C5.46417 2.02202 5.66775 1.87939 6.0342 1.46827L6.68567 0.713162C7.09283 0.251704 7.50814 0 8.34691 0H11.5961C12.4349 0 12.8502 0.251704 13.2573 0.713162L13.9088 1.46827C14.2752 1.88778 14.4707 2.02202 15.114 2.02202H17.443C19.1368 2.02202 20 2.88621 20 4.61458V13.3991C20 15.1274 19.1368 16 17.443 16H2.557ZM16.873 6.43524C17.4349 6.43524 17.8909 5.96539 17.8909 5.39486C17.8909 4.81594 17.4349 4.35448 16.873 4.35448C16.3192 4.35448 15.8632 4.81594 15.8632 5.39486C15.8632 5.96539 16.3192 6.43524 16.873 6.43524ZM10 13.5249C12.4593 13.5249 14.4381 11.4945 14.4381 8.9355C14.4381 6.3849 12.4674 4.35448 10 4.35448C7.53257 4.35448 5.55375 6.3849 5.55375 8.9355C5.55375 11.4945 7.53257 13.5249 10 13.5249ZM10 12.2496C8.2329 12.2496 6.78339 10.7813 6.78339 8.9355C6.78339 7.09806 8.22476 5.6214 10 5.6214C11.7752 5.6214 13.2085 7.09806 13.2085 8.9355C13.2085 10.7813 11.7752 12.2496 10 12.2496Z" fill="#D9D9D9"/>
</svg>
