<svg width="8" height="8" viewBox="0 0 8 8" fill="none" xmlns="http://www.w3.org/2000/svg">
<path d="M0.130544 7.86944C-0.0460281 7.69788 -0.0409831 7.40523 0.130544 7.23367L3.3593 3.99937L0.130544 0.770109C-0.0409831 0.598555 -0.0409831 0.310949 0.130544 0.134349C0.302072 -0.0472969 0.599722 -0.0422512 0.771249 0.134349L4 3.36361L7.22875 0.134349C7.40028 -0.0422512 7.69288 -0.0422512 7.86946 0.134349C8.04603 0.305903 8.04098 0.598555 7.86946 0.770109L4.64071 3.99937L7.86946 7.23367C8.04098 7.40523 8.04098 7.69284 7.86946 7.86944C7.69793 8.04604 7.40028 8.04099 7.22875 7.86944L4 4.64018L0.771249 7.86944C0.599722 8.04099 0.307117 8.04099 0.130544 7.86944Z" fill="black"/>
</svg>
