<svg width="15" height="18" viewBox="0 0 15 18" fill="none" xmlns="http://www.w3.org/2000/svg">
<path d="M7.14941 17.0303C6.49902 17.0303 6.05957 16.582 6.05957 15.9141V5.49902L6.12988 3.5918L4.04688 5.94727L2.06934 7.91602C1.86719 8.10938 1.60352 8.24121 1.28711 8.24121C0.689453 8.24121 0.241211 7.80176 0.241211 7.18652C0.241211 6.89648 0.355469 6.62402 0.583984 6.39551L6.34082 0.629883C6.55176 0.410156 6.85059 0.287109 7.14941 0.287109C7.44824 0.287109 7.75586 0.410156 7.9668 0.629883L13.7236 6.39551C13.9521 6.62402 14.0664 6.89648 14.0664 7.18652C14.0664 7.80176 13.6182 8.24121 13.0205 8.24121C12.7041 8.24121 12.4404 8.10938 12.2383 7.91602L10.252 5.94727L8.16895 3.5918L8.24805 5.49902V15.9141C8.24805 16.582 7.7998 17.0303 7.14941 17.0303Z" fill="white"/>
</svg>
