<svg width="20" height="18" viewBox="0 0 20 18" fill="none" xmlns="http://www.w3.org/2000/svg">
<path d="M0.490234 6.18555C0.490234 2.99219 2.6875 0.707031 5.65625 0.707031C7.36523 0.707031 8.98633 1.67383 9.76758 3.1875C10.5391 1.67383 12.1699 0.707031 13.8789 0.707031C16.8379 0.707031 19.0449 2.99219 19.0449 6.18555C19.0449 10.1406 15.3926 14.0078 10.2168 17.4258C10.0898 17.5137 9.9043 17.5918 9.76758 17.5918C9.62109 17.5918 9.44531 17.5137 9.30859 17.4258C4.13281 14.0078 0.490234 10.1406 0.490234 6.18555ZM1.21289 6.18555C1.21289 9.87695 5.01172 13.6953 9.63086 16.7812C9.67969 16.8105 9.72852 16.8398 9.76758 16.8398C9.80664 16.8398 9.8457 16.8105 9.89453 16.7812C14.5137 13.6953 18.3125 9.87695 18.3125 6.18555C18.3125 3.38281 16.4375 1.42969 13.8789 1.42969C12.1016 1.42969 10.8809 2.5332 10.1484 3.8418C10.0117 4.06641 9.91406 4.1543 9.76758 4.1543C9.62109 4.1543 9.51367 4.06641 9.37695 3.8418C8.6543 2.5332 7.43359 1.42969 5.64648 1.42969C3.09766 1.42969 1.21289 3.38281 1.21289 6.18555Z" fill="#090909"/>
</svg>
